<svg width="64" height="48" viewBox="0 0 64 48" fill="none" xmlns="http://www.w3.org/2000/svg">
<path d="M35.1954 9.62623C45.3319 9.62623 51.0824 16.3348 51.9189 24.4383H52.1749C58.6979 24.4383 63.9861 29.7137 63.9861 36.2191C63.9861 42.7262 58.6979 48 52.1749 48H18.2159C11.6929 48 6.40469 42.7262 6.40469 36.2191C6.40469 29.7137 11.6929 24.4383 18.2175 24.4383H18.4735C19.3148 16.2821 25.0589 9.62623 35.1954 9.62623ZM25.5932 8.67171e-07C28.0532 -0.000833158 30.4761 0.599954 32.6507 1.75001C34.8254 2.90006 36.6858 4.56449 38.0698 6.59824C37.1144 6.483 36.1529 6.42585 35.1906 6.42709C25.4684 6.42709 18.4335 11.9264 16.0597 20.2058L15.9317 20.6697L15.7478 21.4295L15.0856 21.5527C12.5676 22.0851 10.229 23.2564 8.2946 24.954C6.36024 26.6517 4.89525 28.8185 4.04052 31.2461C2.31666 29.901 1.05575 28.0512 0.433761 25.955C-0.188226 23.8588 -0.140256 21.6207 0.570976 19.553C1.28221 17.4854 2.62122 15.6913 4.40113 14.4213C6.18104 13.1513 8.31304 12.4687 10.4996 12.4687H10.7267C11.345 8.97496 13.1738 5.81052 15.8922 3.53052C18.6107 1.25052 22.0452 0.000590015 25.5932 8.67171e-07Z" fill="#339AF0"/>
</svg>
