<svg width="112" height="85" viewBox="0 0 112 85" fill="none" xmlns="http://www.w3.org/2000/svg">
<path d="M61.6046 16.938C79.3476 16.938 89.4132 28.7422 90.8776 43.0007H91.3255C102.744 43.0007 112 52.2831 112 63.7299C112 75.1794 102.744 84.459 91.3255 84.459H31.8837C20.4657 84.459 11.2092 75.1794 11.2092 63.7299C11.2092 52.5111 20.1017 43.3722 31.2005 43.012L32.3345 43.0007C33.8072 28.6493 43.8616 16.938 61.6046 16.938ZM61.6046 23.9603C49.677 23.9603 39.2754 33.6648 39.2754 47.0677C39.2754 49.1927 37.4387 50.8589 35.336 50.8589H31.3573C24.0916 50.8589 18.2034 56.8089 18.2034 64.1492C18.2034 71.4868 24.0916 77.4367 31.3545 77.4367H91.8491C99.1149 77.4367 105 71.4868 105 64.1492C105 56.8089 99.1149 50.8589 91.8491 50.8589H87.8733C85.7677 50.8589 83.931 49.1927 83.931 47.0705C83.931 33.4932 73.5322 23.9603 61.6018 23.9603H61.6046ZM44.7968 3.06237e-06C49.0914 -0.00207045 53.3218 1.04885 57.121 3.06167C60.9203 5.07449 64.1739 7.98844 66.5996 11.5509C63.4039 11.1711 60.1757 11.1551 56.9764 11.5031C53.5953 8.55665 49.2715 6.93301 44.7968 6.92942C35.6019 6.92942 27.765 13.7491 26.1971 22.9611L25.3179 28.1117C25.2068 28.7669 24.8687 29.3614 24.3635 29.79C23.8582 30.2185 23.2183 30.4536 22.5572 30.4534H17.1058C11.3296 30.4534 6.64818 35.2663 6.64818 41.2078C6.64818 44.3207 7.93613 47.124 9.98846 49.0886C8.77087 50.9194 7.7887 52.8978 7.06536 54.9766C4.0498 52.6089 1.84461 49.354 0.757428 45.6661C-0.329758 41.9781 -0.244725 38.041 1.00066 34.404C2.24605 30.767 4.58969 27.6114 7.70464 25.3774C10.8196 23.1435 14.5505 21.9426 18.377 21.9422H18.7745C19.8562 15.7943 23.057 10.2256 27.8155 6.21325C32.5739 2.20089 38.586 0.00115678 44.7968 3.06237e-06Z" fill="#78B0E9"/>
</svg>
